# xmcd CD database file
#
# Track frame offsets:
#	150
#	15671
#	30462
#	43417
#	62950
#	78598
#	101528
#	114274
#	135147
#	150043
#
# Disc length: 2289 seconds
#
# Revision: 0
# Processed by: cddbd v1.5.2PL0 Copyright (c) Steve Scherf et al.
# Submitted via: CDex 1.70beta2
#
DISCID=6d08ef0a
DTITLE=Jon Amor - Stories From The Crooked Room
DYEAR=2009
DGENRE=Blues
TTITLE0=Enemies and Foes
TTITLE1=Stitch In Your Party Dress
TTITLE2=The Rules
TTITLE3=Cut Through The Graveyard
TTITLE4=Oh Eloise
TTITLE5=Rain
TTITLE6=Nightjars
TTITLE7=Beautiful Trouble
TTITLE8=Miss Grace
TTITLE9=Even A Child
EXTD=YEAR: 2009
EXTT0=
EXTT1=
EXTT2=
EXTT3=
EXTT4=
EXTT5=
EXTT6=
EXTT7=
EXTT8=
EXTT9=
PLAYORDER=
